<svg xmlns="http://www.w3.org/2000/svg" width="243" height="96" viewBox="0 0 243 96">
    <g fill="none" fill-rule="evenodd">
        <path fill="#FFF" d="M0 0h243v96H0z"/>
        <path fill="#22384E" d="M56.919 47.453c-1.827-.608-3.358-.912-4.593-.912-.978 0-1.747.181-2.307.543-.561.362-.841.89-.841 1.585 0 .666.243 1.223.733 1.672.489.448 1.092.81 1.811 1.085.718.275 1.783.63 3.191 1.063 2.098.609 3.831 1.217 5.197 1.824 1.365.609 2.537 1.542 3.515 2.801.976 1.26 1.466 2.902 1.466 4.929 0 2.026-.533 3.756-1.596 5.189-1.064 1.432-2.523 2.511-4.377 3.234-1.854.723-3.918 1.086-6.188 1.086-2.502 0-4.997-.442-7.483-1.324-2.487-.883-4.636-2.092-6.447-3.627l3.062-6.208c1.524 1.36 3.327 2.475 5.412 3.343 2.085.868 3.931 1.303 5.542 1.303 1.178 0 2.106-.217 2.781-.652.675-.434 1.014-1.07 1.014-1.91 0-.695-.253-1.274-.755-1.738-.503-.461-1.136-.83-1.897-1.106-.762-.275-1.833-.6-3.213-.978-2.07-.578-3.78-1.164-5.132-1.758-1.352-.593-2.509-1.49-3.472-2.692-.964-1.201-1.444-2.801-1.444-4.799 0-1.88.496-3.53 1.487-4.95.992-1.417 2.4-2.51 4.227-3.277 1.825-.766 3.946-1.15 6.36-1.15 2.185 0 4.341.31 6.47.932 2.127.624 3.995 1.455 5.606 2.497l-2.976 6.34a26.446 26.446 0 0 0-5.153-2.345"/>
        <path fill="#BFEB71" d="M153.95 57.028c-1.28.78-2.294 1.86-3.041 3.234-.748 1.375-1.121 2.888-1.121 4.538 0 1.68.38 3.206 1.142 4.58.762 1.376 1.776 2.462 3.04 3.257a7.616 7.616 0 0 0 4.14 1.194 7.513 7.513 0 0 0 4.12-1.194c1.25-.795 2.234-1.88 2.953-3.256.718-1.375 1.078-2.902 1.078-4.581 0-1.65-.36-3.163-1.078-4.538-.719-1.374-1.703-2.453-2.954-3.234a7.622 7.622 0 0 0-4.118-1.173 7.836 7.836 0 0 0-4.162 1.173m12.42-5.863c2.486 1.36 4.442 3.228 5.864 5.602 1.424 2.374 2.136 5.037 2.136 7.99 0 2.981-.712 5.674-2.136 8.076-1.422 2.403-3.378 4.298-5.864 5.688-2.487 1.39-5.269 2.084-8.345 2.084-3.076 0-5.857-.688-8.344-2.063-2.487-1.374-4.442-3.27-5.866-5.688-1.422-2.417-2.134-5.116-2.134-8.097 0-2.953.712-5.616 2.134-7.99 1.424-2.374 3.379-4.241 5.866-5.602 2.487-1.36 5.268-2.04 8.344-2.04 3.076 0 5.858.68 8.345 2.04"/>
        <path fill="#22384E" d="M88.335 47.996c-1.352-.739-2.689-1.107-4.01-1.107-1.525 0-2.911.383-4.162 1.15-1.25.768-2.236 1.824-2.954 3.17-.719 1.346-1.078 2.844-1.078 4.494s.36 3.148 1.078 4.494c.718 1.346 1.703 2.403 2.954 3.17 1.25.767 2.637 1.15 4.161 1.15 1.236 0 2.53-.317 3.882-.955a12.3 12.3 0 0 0 3.622-2.605l4.615 4.994c-1.64 1.736-3.587 3.119-5.844 4.146-2.257 1.027-4.493 1.542-6.706 1.542-2.99 0-5.692-.696-8.107-2.085a15.175 15.175 0 0 1-5.693-5.688c-1.38-2.403-2.07-5.094-2.07-8.076 0-2.953.705-5.616 2.113-7.99 1.408-2.373 3.343-4.24 5.8-5.6 2.459-1.362 5.212-2.041 8.26-2.041 2.242 0 4.455.47 6.64 1.41 2.185.941 4.039 2.222 5.563 3.843l-4.57 5.558a11.315 11.315 0 0 0-3.494-2.974M100.668 40.636h7.892v12.419h12.203V40.636h7.893v30.438h-7.893v-11.68H108.56v11.68h-7.892z"/>
        <path fill="#158FDD" d="M145.712 48.061c-1.28.782-2.293 1.86-3.04 3.235-.748 1.375-1.121 2.887-1.121 4.537 0 1.68.38 3.206 1.142 4.581.762 1.376 1.776 2.462 3.04 3.257a7.622 7.622 0 0 0 4.14 1.194 7.52 7.52 0 0 0 4.12-1.194c1.25-.795 2.235-1.88 2.953-3.257.718-1.375 1.078-2.9 1.078-4.58 0-1.65-.36-3.163-1.078-4.538-.718-1.375-1.703-2.453-2.954-3.235a7.621 7.621 0 0 0-4.118-1.172c-1.495 0-2.883.39-4.162 1.172m12.42-5.862c2.486 1.36 4.442 3.228 5.865 5.602 1.423 2.373 2.135 5.036 2.135 7.989 0 2.982-.712 5.674-2.135 8.076-1.423 2.403-3.379 4.298-5.865 5.688-2.487 1.39-5.269 2.085-8.344 2.085-3.077 0-5.858-.688-8.345-2.063-2.487-1.375-4.442-3.27-5.866-5.689-1.422-2.416-2.134-5.115-2.134-8.097 0-2.953.712-5.616 2.134-7.99 1.424-2.373 3.379-4.24 5.866-5.6 2.487-1.361 5.268-2.042 8.345-2.042 3.075 0 5.857.68 8.344 2.041"/>
        <path fill="#22384E" d="M179.157 40.636h7.89V64.3h12.81v6.774h-20.7z"/>
        <path fill="#BFEB71" d="M174.369 64.757c0 2.981-.712 5.673-2.135 8.076-1.423 2.403-3.379 4.299-5.865 5.688-2.487 1.389-5.269 2.084-8.344 2.084-3.077 0-5.859-.688-8.346-2.062-2.487-1.375-4.441-3.272-5.865-5.689-1.422-2.416-2.134-5.116-2.134-8.097 0-2.953.712-5.616 2.134-7.99 1.424-2.373 3.378-4.24 5.865-5.601l4.27 5.862c-1.28.78-2.293 1.86-3.04 3.234-.748 1.375-1.121 2.887-1.121 4.538 0 1.68.38 3.206 1.143 4.581.76 1.375 1.774 2.46 3.04 3.257a7.621 7.621 0 0 0 4.14 1.193 7.514 7.514 0 0 0 4.118-1.193c1.25-.796 2.236-1.882 2.954-3.257.718-1.375 1.078-2.902 1.078-4.58"/>
        <g fill="#22384E">
            <path d="M44.078 28.09a3.207 3.207 0 0 0-.964-.176c-.31 0-.555.058-.736.175a.55.55 0 0 0-.271.488c0 .189.063.346.189.472.126.127.284.231.474.312.19.082.45.171.78.269.458.136.834.273 1.128.409.294.137.544.338.75.605.207.266.31.618.31 1.053 0 .416-.11.779-.334 1.087a2.1 2.1 0 0 1-.92.707 3.477 3.477 0 0 1-1.34.244c-.53 0-1.047-.1-1.55-.297a4.412 4.412 0 0 1-1.318-.796l.543-1.111c.342.318.726.569 1.152.751.426.182.823.273 1.192.273.36 0 .645-.07.851-.21.207-.14.31-.33.31-.57a.657.657 0 0 0-.188-.483 1.4 1.4 0 0 0-.48-.307 8.603 8.603 0 0 0-.794-.263 9.35 9.35 0 0 1-1.123-.4c-.29-.13-.54-.327-.746-.59-.207-.264-.31-.61-.31-1.039 0-.396.105-.741.315-1.038.21-.296.506-.525.891-.688.384-.162.828-.244 1.332-.244.438 0 .872.066 1.302.196.43.13.812.306 1.147.526l-.522 1.141a4.889 4.889 0 0 0-1.07-.497M48.789 32.116c.303.306.71.459 1.22.459s.912-.153 1.206-.459c.293-.305.44-.728.44-1.267V26.83h1.298v4.018c0 .591-.12 1.106-.358 1.545a2.44 2.44 0 0 1-1.022 1.01c-.443.234-.964.35-1.564.35-.606 0-1.135-.116-1.583-.35a2.423 2.423 0 0 1-1.032-1.01c-.238-.439-.358-.954-.358-1.545V26.83h1.298v4.018c0 .539.151.962.455 1.267M58.517 30.176c.262-.215.392-.533.392-.956 0-.416-.13-.728-.392-.936-.261-.207-.637-.312-1.128-.312h-1.414v2.525h1.414c.49 0 .867-.107 1.128-.321m.92-2.73c.468.41.702.988.702 1.735 0 .78-.234 1.387-.702 1.819-.468.432-1.128.648-1.98.648h-1.482v2.009h-1.298V26.83h2.78c.852 0 1.512.205 1.98.615M65.248 30.176c.261-.215.391-.533.391-.956 0-.416-.13-.728-.391-.936-.262-.207-.638-.312-1.129-.312h-1.413v2.525h1.413c.491 0 .867-.107 1.129-.321m.92-2.73c.468.41.702.988.702 1.735 0 .78-.234 1.387-.702 1.819-.469.432-1.129.648-1.981.648h-1.481v2.009h-1.299V26.83h2.78c.852 0 1.512.205 1.98.615M68.138 26.831h1.298v5.646h2.925v1.18h-4.223zM79.023 26.831l-2.47 4.593v2.233h-1.297v-2.184l-2.528-4.642h1.317l1.85 3.208 1.82-3.208zM86.679 28.148a2.275 2.275 0 0 0-.993-.234c-.42 0-.804.1-1.152.302-.348.201-.624.48-.824.833-.2.354-.3.743-.3 1.166 0 .422.1.81.3 1.165.2.354.476.634.824.838a2.23 2.23 0 0 0 1.152.308c.323 0 .648-.072.974-.215.326-.142.615-.341.866-.594l.766.858a4.01 4.01 0 0 1-1.24.863 3.537 3.537 0 0 1-3.225-.151 3.428 3.428 0 0 1-1.279-1.273 3.493 3.493 0 0 1-.465-1.78 3.423 3.423 0 0 1 1.768-3.033 3.66 3.66 0 0 1 1.816-.457c.484 0 .959.097 1.424.292.465.195.862.465 1.19.81l-.755.955a2.555 2.555 0 0 0-.847-.653M89.55 26.831h1.299v2.915h3.38v-2.915h1.296v6.826h-1.297v-2.77h-3.38v2.77H89.55zM98.964 31.093h2.382l-1.182-2.868-1.2 2.868zm3.447 2.564l-.6-1.443h-3.312l-.6 1.443h-1.347l2.973-6.826h1.346l2.935 6.826h-1.395zM104.822 33.657h1.298V26.83h-1.298zM112.706 26.831h1.258v6.826h-1.23l-3.486-4.7v4.7h-1.269V26.83h1.23l3.497 4.71zM121.582 28.09a3.207 3.207 0 0 0-.964-.176c-.31 0-.555.058-.736.175a.55.55 0 0 0-.27.488c0 .189.063.346.188.472.125.127.284.231.474.312.19.082.45.171.78.269.458.136.834.273 1.128.409.294.137.544.338.75.605.207.266.311.618.311 1.053 0 .416-.112.779-.334 1.087-.224.309-.53.545-.92.707a3.474 3.474 0 0 1-1.342.244c-.529 0-1.046-.1-1.55-.297a4.408 4.408 0 0 1-1.316-.796l.542-1.111c.342.318.727.569 1.152.751.427.182.824.273 1.192.273.361 0 .645-.07.852-.21.206-.14.31-.33.31-.57a.655.655 0 0 0-.19-.483 1.392 1.392 0 0 0-.479-.307 8.577 8.577 0 0 0-.793-.263 9.26 9.26 0 0 1-1.124-.4c-.29-.13-.54-.327-.746-.59-.207-.264-.31-.61-.31-1.039 0-.396.105-.741.315-1.038.21-.296.507-.525.89-.688.385-.162.829-.244 1.333-.244.439 0 .872.066 1.302.196.43.13.812.306 1.148.526l-.523 1.141a4.869 4.869 0 0 0-1.07-.497M126.293 32.116c.304.306.71.459 1.22.459s.912-.153 1.206-.459c.293-.305.44-.728.44-1.267V26.83h1.298v4.018c0 .591-.12 1.106-.358 1.545-.238.438-.58.775-1.022 1.01-.442.234-.963.35-1.564.35-.606 0-1.134-.116-1.583-.35a2.427 2.427 0 0 1-1.032-1.01c-.238-.439-.358-.954-.358-1.545V26.83h1.298v4.018c0 .539.151.962.455 1.267M135.373 28.09a3.207 3.207 0 0 0-.964-.176c-.31 0-.555.058-.736.175a.55.55 0 0 0-.271.488c0 .189.063.346.189.472.125.127.284.231.474.312.19.082.45.171.78.269a8.48 8.48 0 0 1 1.128.409c.294.137.544.338.75.605.207.266.31.618.31 1.053 0 .416-.112.779-.334 1.087-.222.309-.53.545-.92.707-.39.162-.838.244-1.342.244-.529 0-1.045-.1-1.548-.297a4.412 4.412 0 0 1-1.318-.796l.543-1.111c.341.318.726.569 1.152.751.426.182.824.273 1.192.273.36 0 .645-.07.851-.21.207-.14.31-.33.31-.57a.657.657 0 0 0-.188-.483 1.4 1.4 0 0 0-.48-.307 8.603 8.603 0 0 0-.794-.263 9.35 9.35 0 0 1-1.123-.4c-.29-.13-.54-.327-.746-.59-.207-.264-.31-.61-.31-1.039 0-.396.105-.741.315-1.038.21-.296.506-.525.89-.688.385-.162.828-.244 1.333-.244.438 0 .872.066 1.302.196.43.13.812.306 1.148.526l-.524 1.141a4.869 4.869 0 0 0-1.07-.497M137.7 26.831h5.53v1.16h-2.11v5.666h-1.308v-5.665h-2.111zM145.227 31.093h2.382l-1.181-2.868-1.201 2.868zm3.447 2.564l-.6-1.443h-3.312l-.6 1.443h-1.347l2.973-6.826h1.346l2.935 6.826h-1.395zM151.085 33.657h1.298V26.83h-1.298zM158.968 26.831h1.259v6.826h-1.23l-3.486-4.7v4.7h-1.268V26.83h1.23l3.495 4.71zM163.656 31.093h2.382l-1.181-2.868-1.201 2.868zm3.448 2.564l-.601-1.443h-3.312l-.6 1.443h-1.347l2.973-6.826h1.346l2.935 6.826h-1.394zM173.428 32.292a.786.786 0 0 0 .348-.683c0-.28-.116-.499-.348-.659-.232-.158-.555-.235-.97-.228h-1.646v1.804h1.647c.414.006.737-.071.969-.234m-.18-2.896c.191-.15.286-.358.286-.624 0-.26-.095-.462-.285-.605-.191-.143-.455-.211-.79-.204h-1.647v1.657h1.647c.335 0 .599-.075.79-.224m.987-2.107c.416.306.625.722.625 1.25 0 .375-.105.699-.315.968-.21.27-.499.45-.866.542.451.085.805.28 1.06.585.255.305.382.686.382 1.14 0 .586-.224 1.045-.673 1.38-.448.336-1.06.503-1.835.503h-3.098V26.83h3.011c.723 0 1.293.153 1.71.458M176.575 33.657h1.298V26.83h-1.298zM179.732 26.831h1.298v5.646h2.924v1.18h-4.222zM185.165 33.657h1.297V26.83h-1.297zM187.566 26.831h5.53v1.16h-2.11v5.666h-1.308v-5.665h-2.112zM199.663 26.831l-2.47 4.593v2.233h-1.298v-2.184l-2.528-4.642h1.318l1.849 3.208 1.821-3.208z"/>
        </g>
    </g>
</svg>
